<svg width="128" height="51" viewBox="0 0 128 51" fill="none" xmlns="http://www.w3.org/2000/svg">
<path d="M23.4783 26.022C23.4409 23.7401 24.4302 21.964 26.4444 20.6926C25.3083 19.0472 23.6332 18.1226 21.4177 17.9159C20.6296 17.8423 19.6222 18.0277 18.3966 18.4773C17.0781 18.9642 16.336 19.2062 16.1716 19.2062C15.8235 19.2062 15.1553 19.0014 14.1655 18.5891C13.1775 18.1777 12.3345 17.9721 11.6388 17.9721C10.4671 17.9909 9.3769 18.3136 8.37003 18.9396C7.36269 19.5666 6.55757 20.4223 5.95373 21.5059C5.18366 22.8523 4.80005 24.461 4.80005 26.33C4.80005 28.0128 5.08326 29.695 5.65063 31.3791C6.18153 32.9873 6.8602 34.3993 7.68331 35.6136C8.41502 36.717 9.05817 37.5208 9.60565 38.0266C10.3942 38.8115 11.1988 39.1861 12.0238 39.1479C12.5543 39.1286 13.2495 38.9323 14.1105 38.5573C14.9156 38.2039 15.7217 38.0256 16.5278 38.0256C17.2784 38.0256 18.0556 38.2025 18.8626 38.5573C19.7591 38.9323 20.4922 39.1191 21.0596 39.1191C21.9021 39.0823 22.6893 38.7177 23.4224 38.0266C23.6777 37.8011 23.9576 37.493 24.2592 37.1005C24.6078 36.6434 24.9422 36.1754 25.2623 35.698C25.529 35.2866 25.7814 34.8654 26.0177 34.4361C26.2716 33.9738 26.4965 33.4959 26.6907 33.0053C26.7812 32.7996 26.8636 32.5897 26.9374 32.3745C27.0104 32.1594 27.0838 31.9405 27.1567 31.716C26.479 31.4174 25.8657 30.9951 25.3163 30.4526C24.1091 29.2577 23.4953 27.7802 23.4773 26.0224L23.4783 26.022ZM43.3959 31.022H43.2628L37.6848 18.3245H33.3045V38.8115H37.1222V25.5432H37.2993L41.9609 36.0792H44.6382L49.2851 25.5432H49.4632V38.8115H53.3249V18.3245H48.9744L43.3964 31.022H43.3959ZM20.0168 15.6445C20.9876 14.4288 21.4731 13.1201 21.4731 11.7172V11.4369C21.4731 11.3426 21.4636 11.2497 21.4456 11.1562C20.7679 11.1935 20.0494 11.4091 19.2888 11.8011C18.5292 12.1946 17.9021 12.6908 17.4072 13.2881C16.4188 14.467 15.9239 15.7284 15.9239 17.0748V17.3404C15.9239 17.4253 15.9334 17.5135 15.9514 17.6079C17.4716 17.7569 18.8271 17.1022 20.0168 15.6445ZM97.944 18.3245H102.235V38.8115H97.944V18.3245ZM115.195 21.5809C117.739 21.5809 119.085 23.5321 119.085 25.6337H123.2V25.1983C123.2 21.2361 120.167 17.9348 115.165 17.9348C109.808 17.9348 106.612 21.4465 106.612 27.4353V29.7469C106.612 35.7339 109.778 39.2021 115.15 39.2021C120.521 39.2021 123.2 35.8537 123.2 32.1325V31.6825H119.085C119.085 33.7997 117.769 35.5555 115.225 35.5555C112.68 35.5555 110.962 33.7091 110.962 29.7611V27.4514C110.962 23.517 112.635 21.5809 115.194 21.5809H115.195ZM69.736 31.2617C69.736 34.0091 68.1234 35.5244 65.7559 35.5244C63.3884 35.5244 61.7611 34.0238 61.7611 31.2617V18.3245H57.4992V31.8622C57.4992 36.2311 60.606 39.2021 65.7554 39.2021C70.9049 39.2021 74.0121 36.2306 74.0121 31.8622V18.3245H69.7365V31.2617H69.736ZM88.2087 26.8796L85.1464 26.1899C83.3416 25.8135 82.3944 25.0186 82.3944 23.8321C82.3944 22.257 83.6811 21.2658 85.7541 21.2658C88.0917 21.2658 89.2606 22.6018 89.3638 24.0425H93.3591C93.3146 20.4252 90.2817 17.9037 85.7683 17.9037C81.4926 17.9037 78.1187 20.1407 78.1187 24.1628C78.1187 27.6448 80.4867 29.2648 83.3273 29.8818L86.3603 30.5866C88.4024 31.0518 89.4377 31.7278 89.4377 33.1227C89.4377 34.7149 88.1647 35.7957 85.7834 35.7957C83.2236 35.7957 81.8767 34.4446 81.7588 32.9279H77.6446C77.7048 35.8249 79.6281 39.2021 85.5765 39.2021C90.5772 39.2021 93.6707 36.7259 93.6707 32.7019C93.6693 28.9798 91.1682 27.524 88.2087 26.8796Z" fill="black"/>
</svg>
