<svg width="128" height="51" viewBox="0 0 128 51" fill="none" xmlns="http://www.w3.org/2000/svg">
<path d="M116.935 19.9916C108.314 19.9916 108.322 28.52 108.322 28.52C108.322 28.52 107.73 37.0055 116.936 37.0055C116.936 37.0055 124.607 37.4394 124.607 31.103H120.662C120.662 31.103 120.793 33.4892 117.067 33.4892C117.067 33.4892 113.122 33.7497 113.122 29.6274H124.739C124.739 29.6274 126.007 19.9916 116.935 19.9916ZM120.441 26.6648H113.077C113.077 26.6648 113.559 23.2437 117.023 23.2437C120.486 23.2437 120.441 26.6648 120.441 26.6648H120.441Z" fill="black"/>
<path d="M17.787 24.478C17.787 24.478 21.2075 24.2263 21.2075 20.2548C21.2075 16.2832 18.4092 14.3441 14.8646 14.3441C14.8646 14.3441 14.8639 14.3441 14.8633 14.3441H8.3382H3.19824V36.5409H8.14715V36.5422H14.8633C14.8633 36.5422 21.9845 36.7641 21.9845 29.9895C21.9845 29.9895 22.2952 24.478 17.787 24.478ZM14.0252 18.2891H14.8646C14.8646 18.2891 16.4503 18.2891 16.4503 20.5984C16.4503 22.9077 15.5173 23.242 14.4608 23.242C14.4532 23.242 14.4455 23.2432 14.4379 23.2432H8.33884V18.2891H14.0258H14.0252ZM14.4347 32.5971H14.3513C14.2583 32.5971 14.1793 32.5945 14.1182 32.5945C14.108 32.5945 14.0991 32.5958 14.0895 32.5971H8.3382V26.6643H14.8633V26.6618L14.8646 26.663C14.8646 26.663 17.2273 26.6327 17.2273 29.7114C17.2273 32.4009 15.3282 32.592 14.4341 32.5971H14.4347Z" fill="black"/>
<path d="M31.4819 19.9916C22.861 19.9916 22.8692 28.52 22.8692 28.52C22.8692 28.52 22.2776 37.0055 31.4819 37.0055C31.4819 37.0055 39.1527 37.4394 39.1527 31.103H35.2074C35.2074 31.103 35.3386 33.4892 31.6131 33.4892C31.6131 33.4892 27.6679 33.7497 27.6679 29.6274H39.2832C39.2832 29.6274 40.555 19.9916 31.4819 19.9916ZM34.9877 26.6648H27.6246C27.6246 26.6648 28.1066 23.2437 31.5698 23.2437C35.0329 23.2437 34.9884 26.6648 34.9884 26.6648H34.9877Z" fill="black"/>
<path d="M35.9097 15.6514H26.6602V18.3851H35.9097V15.6514Z" fill="black"/>
<path d="M56.0721 25.4617V25.2441H56.0682C55.9823 22.605 54.3469 19.9918 50.5933 19.9918C47.7332 19.9918 46.1985 21.7815 45.596 22.7066V14.3441H41.0381V36.5302H45.596V27.5433C45.596 25.591 46.0775 23.5503 48.7076 23.5503C51.5441 23.5503 51.5441 25.2435 51.5441 25.2435V25.2423H51.5454V26.1661L51.6021 26.1793V36.5302H56.0727V25.4655C56.0727 25.4655 56.0727 25.4642 56.0727 25.4636C56.0727 25.463 56.0727 25.4623 56.0727 25.4617H56.0721Z" fill="black"/>
<path d="M102.887 30.2483C102.887 30.2483 103.003 33.5363 99.9162 33.5363C96.8295 33.5363 96.0137 30.2603 96.0137 28.381C96.0137 26.5018 96.6537 23.3273 99.9742 23.3273C103.295 23.3273 103.178 26.1531 103.178 26.1531H107.314C107.314 26.1531 107.604 19.9927 100.033 19.9927C92.4614 19.9927 91.6456 26.0648 91.6456 28.5021C91.6456 30.9394 92.9269 37.0923 99.9169 37.0923C106.906 37.091 107.605 31.5164 107.605 30.2477H102.886L102.887 30.2483Z" fill="black"/>
<path d="M89.9659 25.4615V25.244H89.9621C89.8761 22.6049 88.2394 19.9916 84.4871 19.9916C81.6252 19.9916 80.0904 21.7832 79.4885 22.7083V20.2294H74.9307V36.5306H79.4885V27.721C79.4892 27.6718 79.4898 27.6132 79.4898 27.5438C79.4898 25.5915 79.9713 23.5508 82.6014 23.5508C85.4379 23.5508 85.4379 25.244 85.4379 25.244V26.1666L85.4959 26.1804V36.5313H89.9665V25.4666C89.9665 25.4666 89.9665 25.4653 89.9665 25.4647C89.9665 25.4641 89.9665 25.4634 89.9665 25.4628L89.9659 25.4615Z" fill="black"/>
<path d="M72.5572 33.4634V23.9576C72.5572 23.9576 73.0966 19.9929 65.8825 19.9929C58.6683 19.9929 58.206 23.5729 58.1671 25.7119H62.9893C62.9893 25.7119 62.797 22.8836 65.8443 22.8836C65.8443 22.8836 68.4292 22.6799 68.4292 25.2453C68.4292 25.2453 68.4292 26.9315 66.0761 27.0848C63.7229 27.238 57.743 27.2008 57.743 32.013C57.743 32.013 57.5882 37.0932 63.0861 37.0932C63.0861 37.0932 66.8479 37.1695 68.4292 34.8772V36.5307H73.4049C73.4049 36.5307 72.5572 36.0993 72.5572 33.464V33.4634ZM64.7247 33.9603C64.7247 33.9603 62.0245 34.0763 62.0245 31.7834C62.0245 31.7834 61.7933 30.0259 65.5742 29.4533C67.0785 29.3386 67.7726 29.2358 68.3904 28.5427V31.5161C68.3904 31.5161 68.0044 33.9609 64.7253 33.9609L64.7247 33.9603Z" fill="black"/>
</svg>
