<svg width="513" height="494" viewBox="0 0 513 494" fill="none" xmlns="http://www.w3.org/2000/svg">
<g filter="url(#filter0_d_1_62)">
<path d="M206.5 405L224 484L243.5 390.5C299.167 368 422.1 298 468.5 198C485 153 474.6 73.1 301 113.5C451.8 91.9 450.5 158.5 431 194.5C408.6 238.1 344.333 290.333 315 311C259 354.2 185 382 155 390.5C-10.2 430.5 6.16667 339.833 35 289.5C-14.2 347.819 5.5 390.8 21.5 405C67.5 447.4 164 422.667 206.5 405Z" fill="white"/>
<path d="M1 237.5L181.5 198L223.5 0L266.5 198L387.5 225.5L356.5 257L266.5 274.5L255 332L198.5 359.5L181.5 277.5L1 237.5Z" fill="white"/>
<path d="M421.284 308.224C437.448 308.8 461.696 318.948 464.5 357.5C463.5 342 471.8 310.5 513 308.5C497.5 309.002 466.1 300.006 464.5 260C464.815 275.293 456.391 305.051 421.284 308.224Z" fill="white"/>
</g>
<defs>
<filter id="filter0_d_1_62" x="0" y="0" width="513" height="494" filterUnits="userSpaceOnUse" color-interpolation-filters="sRGB">
<feFlood flood-opacity="0" result="BackgroundImageFix"/>
<feColorMatrix in="SourceAlpha" type="matrix" values="0 0 0 0 0 0 0 0 0 0 0 0 0 0 0 0 0 0 127 0" result="hardAlpha"/>
<feOffset dx="-1" dy="10"/>
<feComposite in2="hardAlpha" operator="out"/>
<feColorMatrix type="matrix" values="0 0 0 0 0.823937 0 0 0 0 0.823937 0 0 0 0 0.823937 0 0 0 1 0"/>
<feBlend mode="normal" in2="BackgroundImageFix" result="effect1_dropShadow_1_62"/>
<feBlend mode="normal" in="SourceGraphic" in2="effect1_dropShadow_1_62" result="shape"/>
</filter>
</defs>
</svg>
