<svg width="44" height="45" viewBox="0 0 44 45" fill="none" xmlns="http://www.w3.org/2000/svg">
<path d="M25.2523 26.8429C26.6569 31.005 27.6012 35.3085 28.0683 39.6763C26.118 40.3586 24.0663 40.7063 22 40.7048C18.3649 40.7108 14.8108 39.6306 11.7938 37.6028C13.1998 34.9977 15.1158 32.7023 17.4277 30.8534C19.7396 29.0045 22.4001 27.64 25.2505 26.8411L25.2523 26.8429ZM39.5505 27.6918C38.242 31.9935 35.4012 35.6659 31.5663 38.0134C31.0514 33.985 30.1551 30.0145 28.8897 26.1554C32.5156 25.7809 36.1779 26.3087 39.5505 27.6918ZM22.2658 19.5939C22.8757 20.8381 23.4441 22.105 23.9708 23.3944C17.6209 25.2547 12.2322 29.4905 8.92466 35.2213C7.06587 33.3164 5.64047 31.0325 4.74595 28.5259C3.85143 26.0192 3.50892 23.3489 3.74183 20.6976C9.87066 21.9956 16.3368 21.6179 22.2658 19.5939ZM36.1533 10.7188C39.2076 14.449 40.6815 19.2261 40.26 24.0288C36.2269 22.5112 31.8784 22.0259 27.61 22.6171C27.0204 21.128 26.3752 19.6616 25.6758 18.2208C29.6045 16.3935 33.1578 13.8493 36.1533 10.7188ZM13.321 6.21976C16.0617 9.32653 18.476 12.7066 20.526 16.3068C15.3226 17.9639 9.7771 18.2356 4.43666 17.0951C5.84276 12.4374 9.03743 8.52678 13.321 6.21976ZM22 4.03809C26.378 4.03809 30.3985 5.57259 33.55 8.13376C30.8223 10.9973 27.5745 13.3156 23.98 14.9648C21.9568 11.3412 19.5868 7.92257 16.9033 4.75676C18.56 4.27873 20.2758 4.03679 22 4.03809Z" fill="#9E9E9E"/>
</svg>
