<svg width="44" height="45" viewBox="0 0 44 45" fill="none" xmlns="http://www.w3.org/2000/svg">
<path d="M23.8847 4.21777C25.9472 4.22327 26.9941 4.23427 27.8979 4.25994L28.2536 4.27277C28.6642 4.28744 29.0694 4.30577 29.5589 4.32777C31.5096 4.41944 32.8406 4.72744 34.0084 5.18027C35.2184 5.64594 36.2377 6.27661 37.2571 7.29411C38.1897 8.21028 38.9111 9.31897 39.3709 10.5428C39.8237 11.7106 40.1317 13.0416 40.2234 14.9941C40.2454 15.4818 40.2637 15.8869 40.2784 16.2994L40.2894 16.6551C40.3169 17.5571 40.3279 18.6039 40.3316 20.6664L40.3334 22.0341V24.4358C40.3379 25.773 40.3238 27.1103 40.2912 28.4471L40.2802 28.8028C40.2656 29.2153 40.2472 29.6204 40.2252 30.1081C40.1336 32.0606 39.8219 33.3898 39.3709 34.5594C38.9111 35.7832 38.1897 36.8919 37.2571 37.8081C36.3409 38.7407 35.2322 39.4621 34.0084 39.9219C32.8406 40.3748 31.5096 40.6828 29.5589 40.7744L28.2536 40.8294L27.8979 40.8404C26.9941 40.8661 25.9472 40.8789 23.8847 40.8826L22.5171 40.8844H20.1172C18.7794 40.8892 17.4415 40.8751 16.1041 40.8423L15.7484 40.8313C15.3132 40.8148 14.8781 40.7958 14.4431 40.7744C12.4924 40.6828 11.1614 40.3748 9.99173 39.9219C8.76859 39.4619 7.66054 38.7405 6.7449 37.8081C5.81163 36.8921 5.0896 35.7834 4.62923 34.5594C4.1764 33.3916 3.8684 32.0606 3.77673 30.1081L3.72173 28.8028L3.71256 28.4471C3.67877 27.1103 3.66349 25.773 3.66673 24.4358V20.6664C3.66166 19.3292 3.6751 17.992 3.70706 16.6551L3.7199 16.2994C3.73456 15.8869 3.7529 15.4818 3.7749 14.9941C3.86656 13.0416 4.17456 11.7124 4.6274 10.5428C5.08884 9.31847 5.81214 8.20974 6.74673 7.29411C7.66184 6.36195 8.76924 5.64057 9.99173 5.18027C11.1614 4.72744 12.4906 4.41944 14.4431 4.32777C14.9307 4.30577 15.3377 4.28744 15.7484 4.27277L16.1041 4.26177C17.4409 4.2292 18.7782 4.21514 20.1154 4.21961L23.8847 4.21777ZM22.0001 13.3844C19.5689 13.3844 17.2373 14.3502 15.5183 16.0693C13.7992 17.7884 12.8334 20.12 12.8334 22.5511C12.8334 24.9823 13.7992 27.3138 15.5183 29.0329C17.2373 30.752 19.5689 31.7178 22.0001 31.7178C24.4312 31.7178 26.7628 30.752 28.4819 29.0329C30.201 27.3138 31.1667 24.9823 31.1667 22.5511C31.1667 20.12 30.201 17.7884 28.4819 16.0693C26.7628 14.3502 24.4312 13.3844 22.0001 13.3844ZM22.0001 17.0511C22.7223 17.051 23.4376 17.1931 24.1049 17.4694C24.7722 17.7457 25.3786 18.1507 25.8894 18.6614C26.4002 19.172 26.8055 19.7783 27.082 20.4455C27.3585 21.1127 27.5009 21.8279 27.501 22.5502C27.5011 23.2725 27.359 23.9877 27.0827 24.655C26.8064 25.3224 26.4014 25.9287 25.8907 26.4395C25.3801 26.9504 24.7738 27.3556 24.1066 27.6321C23.4393 27.9086 22.7242 28.051 22.0019 28.0511C20.5432 28.0511 19.1443 27.4716 18.1128 26.4402C17.0814 25.4087 16.5019 24.0098 16.5019 22.5511C16.5019 21.0924 17.0814 19.6935 18.1128 18.662C19.1443 17.6306 20.5432 17.0511 22.0019 17.0511M31.6269 10.6344C31.0191 10.6344 30.4362 10.8759 30.0064 11.3057C29.5767 11.7354 29.3352 12.3183 29.3352 12.9261C29.3352 13.5339 29.5767 14.1168 30.0064 14.5466C30.4362 14.9763 31.0191 15.2178 31.6269 15.2178C32.2347 15.2178 32.8176 14.9763 33.2474 14.5466C33.6771 14.1168 33.9186 13.5339 33.9186 12.9261C33.9186 12.3183 33.6771 11.7354 33.2474 11.3057C32.8176 10.8759 32.2347 10.6344 31.6269 10.6344Z" fill="#9E9E9E"/>
</svg>
