<svg width="128" height="51" viewBox="0 0 128 51" fill="none" xmlns="http://www.w3.org/2000/svg">
<path d="M118.76 36.6211H114.315V29.6859C114.315 28.0324 114.285 25.9034 112.003 25.9034C109.72 25.9034 109.333 27.7051 109.333 29.5655V36.6206H104.887V22.3594H109.155V24.3081H109.215C110.085 22.8258 111.704 21.9408 113.426 22.0045C117.932 22.0045 118.763 24.9567 118.763 28.7974L118.761 36.6211H118.76ZM99.8709 20.4101C98.4462 20.4101 97.2906 19.26 97.2906 17.8409C97.2906 16.4218 98.4452 15.2707 99.8699 15.2707C101.295 15.2707 102.45 16.4208 102.45 17.8399C102.45 19.259 101.296 20.4101 99.8709 20.4101ZM102.094 36.6211H97.6434V22.3594H102.094V36.6211ZM120.977 11.158H95.4095C94.2009 11.1442 93.2103 12.1087 93.1954 13.3121V38.8852C93.2098 40.0896 94.2004 41.0546 95.4095 41.0418H120.977C122.189 41.0571 123.183 40.0921 123.2 38.8852V13.3106C123.183 12.1047 122.188 11.1407 120.977 11.1565M81.0953 25.8018C78.8723 25.8018 77.5388 27.2801 77.5388 29.4342C77.5388 31.5883 78.8718 33.0681 81.0953 33.0681C83.3188 33.0681 84.6553 31.5922 84.6553 29.4342C84.6553 27.2762 83.3213 25.8018 81.0953 25.8018ZM88.748 36.6127H84.6553V34.7212H84.5948C83.5542 36.1156 81.9194 36.9464 80.1751 36.9666C75.9035 36.9666 73.0899 33.8959 73.0899 29.5532C73.0899 25.5648 75.58 21.9028 79.6731 21.9028C81.5131 21.9028 83.2316 22.4043 84.2395 23.7943H84.298V15.5738H88.748V36.6127ZM67.3812 27.826C67.4159 26.36 66.2509 25.1438 64.7792 25.1092C64.7365 25.1082 64.6939 25.1082 64.6518 25.1092C63.0359 25.009 61.6374 26.2184 61.5101 27.826H67.3812ZM71.1473 34.1457C69.6513 35.9527 67.4194 36.9942 65.0681 36.9829C60.6226 36.9829 57.0631 34.0272 57.0631 29.4495C57.0631 24.8718 60.6221 21.9176 65.0681 21.9176C69.2232 21.9176 71.8292 24.8698 71.8292 29.4495V30.838H61.5106C61.7762 32.4664 63.2053 33.6506 64.8609 33.6145C66.1469 33.6066 67.3406 32.9506 68.0334 31.8716L71.1473 34.1452V34.1457ZM26.9516 22.3559H31.2207V24.3047H31.2811C32.1498 22.8219 33.7682 21.9363 35.4907 22.001C39.9992 22.001 40.8287 24.9557 40.8287 28.794V36.6147H36.3832V29.681C36.3832 28.0259 36.3525 25.8985 34.0675 25.8985C31.7826 25.8985 31.4 27.7007 31.4 29.5606V36.6127H26.9546L26.9511 22.3559H26.9516ZM43.0834 15.5753H47.5289V28.1523L52.5676 22.348H58.018L52.183 28.9505L57.8951 36.6216H52.3074L47.5879 29.5724H47.5294V36.6211H43.0839L43.0829 15.5757L43.0834 15.5753ZM20.0408 22.3544H24.4863V36.6157H20.0408V22.3544ZM22.2638 15.2643C23.6879 15.2643 24.8426 16.4149 24.8421 17.8335C24.8421 19.2521 23.687 20.4022 22.2628 20.4017C20.8386 20.4017 19.6845 19.2516 19.6845 17.833C19.6845 16.4144 20.8391 15.2643 22.2633 15.2643M4.79993 15.5787H9.42778V32.3697H17.9952V36.6236H4.79993V15.5787Z" fill="black"/>
</svg>
