<svg width="44" height="45" viewBox="0 0 44 45" fill="none" xmlns="http://www.w3.org/2000/svg">
<path d="M31.7222 4.85547H12.2778C10.1156 4.85547 8.04186 5.71443 6.51291 7.24338C4.98396 8.77233 4.125 10.846 4.125 13.0083V32.4526C4.125 34.6149 4.98396 36.6886 6.51291 38.2176C8.04186 39.7465 10.1156 40.6055 12.2778 40.6055H31.7222C33.8844 40.6055 35.9581 39.7465 37.4871 38.2176C39.016 36.6886 39.875 34.6149 39.875 32.4526V13.0083C39.875 10.846 39.016 8.77233 37.4871 7.24338C35.9581 5.71443 33.8844 4.85547 31.7222 4.85547ZM16.2122 33.7158C16.2179 33.8156 16.2032 33.9155 16.1689 34.0094C16.1347 34.1033 16.0816 34.1892 16.0129 34.2618C15.9442 34.3345 15.8614 34.3923 15.7696 34.4317C15.6777 34.4712 15.5788 34.4915 15.4788 34.4913H12.2155C12.0187 34.4865 11.8316 34.4047 11.6945 34.2635C11.5574 34.1222 11.4811 33.9328 11.4822 33.736V20.1638C11.4795 20.0658 11.4964 19.9683 11.5321 19.877C11.5677 19.7857 11.6213 19.7024 11.6897 19.6322C11.7581 19.5619 11.8398 19.5061 11.9301 19.468C12.0204 19.4299 12.1175 19.4103 12.2155 19.4103H15.4788C15.5769 19.4103 15.6739 19.4299 15.7642 19.468C15.8545 19.5061 15.9363 19.5619 16.0046 19.6322C16.073 19.7024 16.1266 19.7857 16.1622 19.877C16.1979 19.9683 16.2149 20.0658 16.2122 20.1638V33.7158ZM13.7867 16.5558C13.4334 16.5532 13.084 16.4809 12.7586 16.3433C12.4332 16.2056 12.1381 16.0052 11.8902 15.7535C11.6422 15.5018 11.4463 15.2038 11.3135 14.8763C11.1807 14.5489 11.1138 14.1985 11.1164 13.8452C11.1191 13.4919 11.1913 13.1426 11.3289 12.8172C11.4666 12.4918 11.667 12.1967 11.9187 11.9487C12.1704 11.7008 12.4685 11.5048 12.7959 11.372C13.1233 11.2393 13.4737 11.1723 13.827 11.175C14.5283 11.1978 15.1929 11.4937 15.679 11.9997C16.1651 12.5057 16.4343 13.1816 16.429 13.8832C16.4237 14.5849 16.1445 15.2567 15.6508 15.7553C15.1572 16.2539 14.4882 16.5399 13.7867 16.5521M33.6178 33.6938C33.617 33.879 33.5442 34.0567 33.415 34.1894C33.2857 34.3221 33.11 34.3994 32.9248 34.4051H29.48C29.2945 34.3994 29.1185 34.3218 28.9892 34.1888C28.8599 34.0557 28.7874 33.8775 28.787 33.692V27.4146C28.787 26.4778 29.073 23.3391 26.301 23.3391C24.1395 23.3391 23.7123 25.5391 23.6298 26.5181V33.835C23.6299 34.0208 23.5576 34.1995 23.4283 34.3329C23.2989 34.4664 23.1226 34.5443 22.9368 34.55H19.5947C19.4054 34.5495 19.224 34.4739 19.0903 34.3399C18.9566 34.2059 18.8815 34.0243 18.8815 33.835V20.0978C18.8872 19.912 18.9651 19.7358 19.0985 19.6064C19.232 19.477 19.4106 19.4047 19.5965 19.4048H22.9368C23.1227 19.4047 23.3013 19.477 23.4348 19.6064C23.5683 19.7358 23.6461 19.912 23.6518 20.0978V21.2803C24.1396 20.5664 24.8129 19.9993 25.5993 19.64C26.3857 19.2808 27.2552 19.143 28.1142 19.2416C33.6783 19.2416 33.6582 24.4391 33.6582 27.3945L33.6178 33.6938Z" fill="#9E9E9E"/>
</svg>
