<svg width="44" height="45" viewBox="0 0 44 45" fill="none" xmlns="http://www.w3.org/2000/svg">
<path d="M36.6667 8.24365H7.33333C5.31666 8.24365 3.685 9.89365 3.685 11.9103L3.66666 33.9103C3.66666 35.927 5.31666 37.577 7.33333 37.577H36.6667C38.6833 37.577 40.3333 35.927 40.3333 33.9103V11.9103C40.3333 9.89365 38.6833 8.24365 36.6667 8.24365ZM35.9333 16.0353L22.9717 24.1387C22.385 24.5053 21.615 24.5053 21.0283 24.1387L8.06666 16.0353C7.88283 15.9321 7.72185 15.7927 7.59346 15.6255C7.46507 15.4583 7.37195 15.2667 7.31972 15.0625C7.26749 14.8583 7.25725 14.6455 7.28962 14.4372C7.32198 14.2289 7.39628 14.0293 7.50801 13.8505C7.61975 13.6718 7.76659 13.5175 7.93966 13.3971C8.11273 13.2768 8.30843 13.1928 8.51491 13.1502C8.72138 13.1076 8.93435 13.1074 9.14091 13.1496C9.34748 13.1917 9.54335 13.2753 9.71666 13.3953L22 21.077L34.2833 13.3953C34.4566 13.2753 34.6525 13.1917 34.8591 13.1496C35.0656 13.1074 35.2786 13.1076 35.4851 13.1502C35.6916 13.1928 35.8873 13.2768 36.0603 13.3971C36.2334 13.5175 36.3802 13.6718 36.492 13.8505C36.6037 14.0293 36.678 14.2289 36.7104 14.4372C36.7427 14.6455 36.7325 14.8583 36.6803 15.0625C36.6281 15.2667 36.5349 15.4583 36.4065 15.6255C36.2781 15.7927 36.1172 15.9321 35.9333 16.0353Z" fill="#9E9E9E"/>
</svg>
