<svg width="47" height="45" viewBox="0 0 47 45" fill="none" xmlns="http://www.w3.org/2000/svg">
<path d="M18.8643 37.655L20.4707 45L22.2607 36.3068C27.3708 34.2149 38.6557 27.7066 42.915 18.4091C44.4297 14.2252 43.475 6.79649 27.5391 10.5527C41.382 8.54442 41.2627 14.7366 39.4727 18.0837C37.4164 22.1374 31.5169 26.9938 28.8242 28.9153C23.6836 32.9318 16.8906 35.5165 14.1367 36.3068C-1.02812 40.0258 0.474284 31.5961 3.12109 26.9163C-1.39531 32.3386 0.413086 36.3347 1.88184 37.655C6.10449 41.5971 14.9629 39.2975 18.8643 37.655Z" fill="#1264FF"/>
<path d="M0 22.0816L16.5693 18.4091L20.4248 0L24.3721 18.4091L35.4795 20.9659L32.6338 23.8946L24.3721 25.5217L23.3164 30.8678L18.1299 33.4246L16.5693 25.8006L0 22.0816Z" fill="#1264FF"/>
<path d="M38.5808 28.6572C40.0645 28.7108 42.2905 29.6542 42.5479 33.2386C42.4561 31.7975 43.218 28.8688 47 28.6829C45.5771 28.7296 42.6947 27.8931 42.5479 24.1736C42.5768 25.5954 41.8035 28.3622 38.5808 28.6572Z" fill="#1264FF"/>
</svg>
