<svg width="41" height="40" viewBox="0 0 41 40" fill="none" xmlns="http://www.w3.org/2000/svg">
<path d="M30.5 36.6667C32.3383 36.6667 33.8333 35.1717 33.8333 33.3334V6.66671C33.8333 4.82837 32.3383 3.33337 30.5 3.33337H13.8333C11.995 3.33337 10.5 4.82837 10.5 6.66671V33.3334C10.5 35.1717 11.995 36.6667 13.8333 36.6667H30.5ZM22.1667 28.3334C22.6087 28.3334 23.0326 28.509 23.3452 28.8215C23.6577 29.1341 23.8333 29.558 23.8333 30C23.8333 30.4421 23.6577 30.866 23.3452 31.1786C23.0326 31.4911 22.6087 31.6667 22.1667 31.6667C21.7246 31.6667 21.3007 31.4911 20.9882 31.1786C20.6756 30.866 20.5 30.4421 20.5 30C20.5 29.558 20.6756 29.1341 20.9882 28.8215C21.3007 28.509 21.7246 28.3334 22.1667 28.3334Z" fill="#1264FF"/>
</svg>
