<svg width="41" height="40" viewBox="0 0 41 40" fill="none" xmlns="http://www.w3.org/2000/svg">
<path fill-rule="evenodd" clip-rule="evenodd" d="M15.5 20H11.72C11.3531 20.6355 10.7868 21.1321 10.1089 21.4129C9.43096 21.6937 8.67932 21.743 7.97054 21.5531C7.26176 21.3632 6.63546 20.9447 6.18876 20.3625C5.74206 19.7804 5.49994 19.0671 5.49994 18.3333C5.49994 17.5996 5.74206 16.8863 6.18876 16.3041C6.63546 15.722 7.26176 15.3035 7.97054 15.1136C8.67932 14.9237 9.43096 14.9729 10.1089 15.2537C10.7868 15.5345 11.3531 16.0312 11.72 16.6667H15.5V8.33333C15.5 7.44928 15.8512 6.60143 16.4763 5.97631C17.1015 5.35119 17.9493 5 18.8334 5H32.1667C33.0507 5 33.8986 5.35119 34.5237 5.97631C35.1488 6.60143 35.5 7.44928 35.5 8.33333V31.6667C35.5 32.5507 35.1488 33.3986 34.5237 34.0237C33.8986 34.6488 33.0507 35 32.1667 35H18.8334C17.9493 35 17.1015 34.6488 16.4763 34.0237C15.8512 33.3986 15.5 32.5507 15.5 31.6667V20ZM18.8334 20V31.6667H32.1667V8.33333H18.8334V16.6667H22.6134C22.9802 16.0312 23.5466 15.5345 24.2245 15.2537C24.9024 14.9729 25.6541 14.9237 26.3628 15.1136C27.0716 15.3035 27.6979 15.722 28.1446 16.3041C28.5913 16.8863 28.8334 17.5996 28.8334 18.3333C28.8334 19.0671 28.5913 19.7804 28.1446 20.3625C27.6979 20.9447 27.0716 21.3632 26.3628 21.5531C25.6541 21.743 24.9024 21.6937 24.2245 21.4129C23.5466 21.1321 22.9802 20.6355 22.6134 20H18.8334Z" fill="#1264FF"/>
</svg>
