<svg width="41" height="40" viewBox="0 0 41 40" fill="none" xmlns="http://www.w3.org/2000/svg">
<path fill-rule="evenodd" clip-rule="evenodd" d="M5.50001 10C5.50001 8.67392 6.02679 7.40215 6.96447 6.46447C7.90216 5.52678 9.17392 5 10.5 5H30.5C31.8261 5 33.0979 5.52678 34.0355 6.46447C34.9732 7.40215 35.5 8.67392 35.5 10V22.94L37.9117 27.7633C39.575 31.0883 37.1567 35 33.44 35H7.56001C3.84334 35 1.42667 31.0883 3.08834 27.7633L5.50001 22.94V10ZM10.5 8.33333C10.058 8.33333 9.63406 8.50893 9.3215 8.82149C9.00894 9.13405 8.83334 9.55797 8.83334 10V18.3333C8.83334 18.7754 9.00894 19.1993 9.3215 19.5118C9.63406 19.8244 10.058 20 10.5 20H30.5C30.942 20 31.366 19.8244 31.6785 19.5118C31.9911 19.1993 32.1667 18.7754 32.1667 18.3333V10C32.1667 9.55797 31.9911 9.13405 31.6785 8.82149C31.366 8.50893 30.942 8.33333 30.5 8.33333H10.5Z" fill="#1264FF"/>
</svg>
