<svg width="128" height="51" viewBox="0 0 128 51" fill="none" xmlns="http://www.w3.org/2000/svg">
<path d="M23.2178 6.375C13.0448 6.375 4.79759 14.5898 4.79759 24.723C4.79759 34.8561 13.0448 43.0717 23.2178 43.0717C33.3908 43.0717 41.638 34.8574 41.638 24.723C41.638 14.5886 33.3917 6.37588 23.2175 6.37588L23.2178 6.375ZM31.6652 32.8381C31.3343 33.3786 30.6274 33.548 30.0865 33.2188C25.7609 30.5854 20.3164 29.9906 13.9046 31.4495C13.2867 31.5906 12.6708 31.2048 12.53 30.5895C12.3886 29.974 12.7741 29.3606 13.3935 29.2203C20.4103 27.6224 26.4291 28.3101 31.2843 31.2654C31.8254 31.5963 31.997 32.2995 31.6648 32.8385L31.665 32.8381H31.6652ZM33.9197 27.8429C33.503 28.5162 32.6193 28.7274 31.9442 28.3139C26.9939 25.2829 19.4456 24.4048 13.5891 26.1757C12.8296 26.4042 12.0274 25.9779 11.7969 25.2227C11.5681 24.4661 11.9964 23.6685 12.7547 23.4385C19.4444 21.4167 27.7607 22.3961 33.4466 25.8765C34.1219 26.2905 34.3352 27.1714 33.9194 27.8431L33.9197 27.8429ZM34.1133 22.6405C28.1756 19.1281 18.3816 18.8051 12.7134 20.5187C11.8033 20.7937 10.8407 20.2818 10.5648 19.3753C10.289 18.4682 10.8024 17.51 11.7133 17.2344C18.22 15.2669 29.0366 15.647 35.8716 19.6888C36.6903 20.1728 36.9588 21.226 36.4736 22.0404C35.9897 22.856 34.9295 23.1248 34.1135 22.6405H34.1133ZM54.9128 23.3136C51.7324 22.5581 51.1662 22.0279 51.1662 20.9137C51.1662 19.8612 52.161 19.1528 53.6405 19.1528C55.1201 19.1528 56.4968 19.6906 57.9876 20.798C58.0327 20.8316 58.0893 20.8449 58.1448 20.8361C58.2005 20.8277 58.2498 20.7973 58.2824 20.7516L59.8353 18.5711C59.8991 18.4812 59.8817 18.3575 59.7957 18.2889C58.0213 16.8706 56.0232 16.1811 53.6875 16.1811C50.2535 16.1811 47.8548 18.2339 47.8548 21.1709C47.8548 24.3205 49.924 25.4357 53.4996 26.2965C56.543 26.9948 57.0566 27.5798 57.0566 28.6255C57.0566 29.7844 56.0179 30.5048 54.3464 30.5048C52.49 30.5048 50.9757 29.8819 49.2818 28.4207C49.2398 28.3845 49.1821 28.3681 49.1289 28.3712C49.0729 28.3758 49.0216 28.4016 48.9859 28.4443L47.2447 30.5085C47.1717 30.5942 47.181 30.7221 47.2654 30.7962C49.2363 32.5488 51.6603 33.4745 54.276 33.4745C57.9764 33.4745 60.3676 31.4606 60.3676 28.3434C60.3741 25.7119 58.7927 24.255 54.9192 23.3163L54.9125 23.3135L54.9128 23.3136ZM68.7396 20.1892C67.1356 20.1892 65.82 20.8185 64.7351 22.1079V20.6566C64.7351 20.542 64.6419 20.4486 64.527 20.4486H61.6792C61.5642 20.4486 61.471 20.542 61.471 20.6566V36.7829C61.471 36.8974 61.564 36.9908 61.6792 36.9908H64.527C64.6417 36.9908 64.7351 36.8975 64.7351 36.7829V31.6924C65.8202 32.9054 67.136 33.4981 68.7396 33.4981C71.7198 33.4981 74.7368 31.2129 74.7368 26.8444C74.7412 22.4749 71.7234 20.1889 68.7428 20.1889L68.7396 20.1892ZM71.4252 26.8444C71.4252 29.069 70.0497 30.6213 68.0798 30.6213C66.11 30.6213 64.6636 28.9985 64.6636 26.8444C64.6636 24.6903 66.1326 23.0676 68.0798 23.0676C70.0177 23.0673 71.4255 24.6554 71.4255 26.8443L71.4252 26.8445V26.8444ZM82.4694 20.1892C78.6313 20.1892 75.6245 23.133 75.6245 26.892C75.6245 30.6509 78.6107 33.5229 82.4224 33.5229C86.2341 33.5229 89.2902 30.5889 89.2902 26.8444C89.2902 23.0999 86.2943 20.1896 82.4693 20.1896L82.4695 20.1892H82.4694ZM82.4694 30.6434C80.4279 30.6434 78.8888 29.0095 78.8888 26.8433C78.8888 24.677 80.3746 23.0892 82.4223 23.0892C84.4699 23.0892 86.0264 24.7231 86.0264 26.8908C86.0264 29.0586 84.5306 30.6434 82.4695 30.6434H82.4693H82.4694ZM97.4861 20.4486H94.3523V17.2571C94.3523 17.1427 94.2596 17.0494 94.1444 17.0494H91.297C91.1818 17.0494 91.0882 17.1428 91.0882 17.2571V20.4486H89.719C89.6043 20.4486 89.5116 20.5419 89.5116 20.6566V23.0945C89.5116 23.2089 89.6044 23.3024 89.719 23.3024H91.0882V29.6106C91.0882 32.1598 92.362 33.4522 94.8742 33.4522C95.8957 33.4522 96.7433 33.2422 97.5419 32.7911C97.6068 32.7549 97.647 32.6853 97.647 32.6111V30.2895C97.647 30.2179 97.6095 30.1502 97.5479 30.1128C97.4858 30.0739 97.4087 30.0721 97.3452 30.1034C96.7966 30.3783 96.2663 30.5051 95.6735 30.5051C94.7598 30.5051 94.3522 30.092 94.3522 29.1657V23.3034H97.486C97.601 23.3034 97.6936 23.21 97.6936 23.0955V20.6577C97.698 20.5431 97.6056 20.4497 97.4891 20.4497L97.486 20.4484L97.4861 20.4486ZM108.405 20.4611V20.0691C108.405 18.916 108.849 18.4017 109.844 18.4017C110.438 18.4017 110.915 18.5191 111.449 18.6965C111.515 18.7172 111.583 18.7068 111.637 18.6676C111.692 18.6284 111.723 18.5655 111.723 18.4989V16.1085C111.723 16.0171 111.664 15.9364 111.575 15.9093C111.011 15.7422 110.289 15.5706 109.208 15.5706C106.578 15.5706 105.188 17.046 105.188 19.8359V20.4362H103.82C103.705 20.4362 103.611 20.5296 103.611 20.6439V23.0944C103.611 23.2088 103.705 23.3023 103.82 23.3023H105.188V33.0324C105.188 33.147 105.281 33.2404 105.395 33.2404H108.243C108.358 33.2404 108.452 33.147 108.452 33.0324V23.3031H111.111L115.184 33.0307C114.722 34.0528 114.267 34.2562 113.646 34.2562C113.144 34.2562 112.616 34.1069 112.076 33.8125C112.025 33.7847 111.965 33.78 111.91 33.7969C111.856 33.816 111.81 33.8563 111.787 33.9089L110.822 36.0181C110.776 36.1178 110.815 36.2348 110.912 36.2866C111.919 36.8302 112.829 37.0622 113.953 37.0622C116.056 37.0622 117.218 36.0865 118.243 33.4616L123.183 20.745C123.208 20.681 123.201 20.6086 123.161 20.5519C123.122 20.4956 123.059 20.4616 122.99 20.4616H120.025C119.936 20.4616 119.857 20.518 119.828 20.601L116.791 29.2419L113.464 20.5952C113.434 20.5148 113.356 20.4615 113.27 20.4615H108.404L108.405 20.4609L108.405 20.4611ZM102.074 20.4486H99.2267C99.1117 20.4486 99.0179 20.5419 99.0179 20.6566V33.0326C99.0179 33.1471 99.1115 33.2405 99.2267 33.2405H102.074C102.189 33.2405 102.283 33.1471 102.283 33.0326V20.6574C102.284 20.5429 102.191 20.4497 102.075 20.4495C102.075 20.4495 102.075 20.4495 102.074 20.4495L102.075 20.4486H102.074ZM100.667 14.8136C99.5385 14.8136 98.6231 15.7233 98.6231 16.8471C98.6231 17.9709 99.5388 18.8823 100.667 18.8823C101.795 18.8823 102.709 17.9715 102.709 16.8471C102.709 15.7226 101.794 14.8136 100.668 14.8136H100.667Z" fill="black"/>
</svg>
