<svg width="128" height="51" viewBox="0 0 128 51" fill="none" xmlns="http://www.w3.org/2000/svg">
<path d="M118.007 13.6169H112.814V6.375H101.411L96.1671 13.6169H86.8487L83.733 16.7203V13.6169H76.4628V6.375H53.6139V13.6169H21.4697L16.2249 6.375H4.80045V31.2041L19.3405 45.6874H33.8806V41.5494L38.0348 45.6874H66.0769V41.5494L70.231 45.6874H83.7326V41.5494L87.8867 45.6874H113.852L123.199 36.3765V18.7893L118.006 13.6164L118.007 13.6169ZM22.4566 23.9622H15.1864V26.0312H22.4566V34.3076H11.0322L6.87801 30.1696V8.44397H15.1868V15.6858H22.4571V23.9622H22.4566ZM53.6143 34.3076H28.6879L24.5337 30.1696V15.6858H32.8425V26.0312H34.9196V15.6858H43.2284V26.0312H45.3055V15.6858H53.6143V34.3076ZM64.0003 34.3076H55.6914V15.6858H64.0003V34.3076ZM64.0003 13.6169H55.6914V8.44397H64.0003V13.6169ZM81.6564 23.9622H74.3862V26.0312H81.6564V34.3076H70.232L66.0778 30.1696V8.44397H74.3866V15.6858H81.6569V23.9622H81.6564ZM100.351 23.9622H92.0423V26.0312H100.351V34.3076H87.8882L83.734 30.1696V19.8243L87.8882 15.6863H100.351V23.9627V23.9622ZM121.123 34.3076H112.814V23.9622H110.737V34.3076H102.428V8.44397H110.737V15.6858H116.969L121.123 19.8238V34.3071V34.3076Z" fill="black"/>
</svg>
