<svg width="31" height="30" viewBox="0 0 31 30" fill="none" xmlns="http://www.w3.org/2000/svg">
<rect x="0.5" width="30" height="30" rx="7" fill="#1264FF"/>
<path d="M14.983 9.36364H17.0909V16.9659C17.0909 17.7992 16.8939 18.5322 16.5 19.1648C16.1098 19.7973 15.5606 20.2917 14.8523 20.6477C14.1439 21 13.3163 21.1761 12.3693 21.1761C11.4186 21.1761 10.589 21 9.88068 20.6477C9.17235 20.2917 8.62311 19.7973 8.23295 19.1648C7.8428 18.5322 7.64773 17.7992 7.64773 16.9659V9.36364H9.75568V16.7898C9.75568 17.2746 9.86174 17.7064 10.0739 18.0852C10.2898 18.464 10.5928 18.7614 10.983 18.9773C11.3731 19.1894 11.8352 19.2955 12.3693 19.2955C12.9034 19.2955 13.3655 19.1894 13.7557 18.9773C14.1496 18.7614 14.4527 18.464 14.6648 18.0852C14.8769 17.7064 14.983 17.2746 14.983 16.7898V9.36364ZM21.4901 9.36364V21H19.3821V9.36364H21.4901Z" fill="white"/>
</svg>
