<svg width="31" height="30" viewBox="0 0 31 30" fill="none" xmlns="http://www.w3.org/2000/svg">
<rect x="0.5" width="30" height="30" rx="7" fill="#1264FF"/>
<path d="M12.983 9.36364H15.0909V16.9659C15.0909 17.7992 14.8939 18.5322 14.5 19.1648C14.1098 19.7973 13.5606 20.2917 12.8523 20.6477C12.1439 21 11.3163 21.1761 10.3693 21.1761C9.41856 21.1761 8.58902 21 7.88068 20.6477C7.17235 20.2917 6.62311 19.7973 6.23295 19.1648C5.8428 18.5322 5.64773 17.7992 5.64773 16.9659V9.36364H7.75568V16.7898C7.75568 17.2746 7.86174 17.7064 8.07386 18.0852C8.28977 18.464 8.5928 18.7614 8.98295 18.9773C9.37311 19.1894 9.83523 19.2955 10.3693 19.2955C10.9034 19.2955 11.3655 19.1894 11.7557 18.9773C12.1496 18.7614 12.4527 18.464 12.6648 18.0852C12.8769 17.7064 12.983 17.2746 12.983 16.7898V9.36364ZM19.1435 9.36364L21.706 13.625H21.7969L24.3707 9.36364H26.7741L23.1889 15.1818L26.831 21H24.3878L21.7969 16.767H21.706L19.1151 21H16.6832L20.3594 15.1818L16.7287 9.36364H19.1435Z" fill="white"/>
</svg>
