<svg width="41" height="40" viewBox="0 0 41 40" fill="none" xmlns="http://www.w3.org/2000/svg">
<path d="M12.1666 38.3334C11.25 38.3334 10.4655 38.0073 9.81331 37.3551C9.16109 36.7029 8.83442 35.9179 8.83331 35.0001V5.00008C8.83331 4.08341 9.15998 3.29897 9.81331 2.64675C10.4666 1.99453 11.2511 1.66786 12.1666 1.66675H28.8333C29.75 1.66675 30.535 1.99341 31.1883 2.64675C31.8416 3.30008 32.1678 4.08453 32.1666 5.00008V10.1667C32.6666 10.3612 33.0694 10.6667 33.375 11.0834C33.6805 11.5001 33.8333 11.9723 33.8333 12.5001V15.8334C33.8333 16.3612 33.6805 16.8334 33.375 17.2501C33.0694 17.6667 32.6666 17.9723 32.1666 18.1667V21.6667H25.5C22.7222 21.6667 20.3611 22.639 18.4166 24.5834C16.4722 26.5279 15.5 28.889 15.5 31.6667V38.3334H12.1666ZM34 36.5001C33.6666 36.8334 33.2778 36.9934 32.8333 36.9801C32.3889 36.9668 32 36.7929 31.6666 36.4584C31.3611 36.1251 31.2011 35.7362 31.1866 35.2917C31.1722 34.8473 31.3322 34.4584 31.6666 34.1251L34.125 31.6667L31.6666 29.2084C31.3611 28.9029 31.2083 28.5212 31.2083 28.0634C31.2083 27.6056 31.3611 27.2095 31.6666 26.8751C32 26.5417 32.3961 26.3751 32.855 26.3751C33.3139 26.3751 33.7094 26.5417 34.0416 26.8751L37.6666 30.5001C38 30.8334 38.1666 31.2223 38.1666 31.6667C38.1666 32.1112 38 32.5001 37.6666 32.8334L34 36.5001ZM23.625 36.4584L20 32.8334C19.6666 32.5001 19.5 32.1112 19.5 31.6667C19.5 31.2223 19.6666 30.8334 20 30.5001L23.6666 26.8334C24 26.5001 24.3889 26.3401 24.8333 26.3534C25.2778 26.3667 25.6666 26.5406 26 26.8751C26.3055 27.2084 26.465 27.5973 26.4783 28.0417C26.4916 28.4862 26.3322 28.8751 26 29.2084L23.5416 31.6667L26 34.1251C26.3055 34.4306 26.4583 34.8129 26.4583 35.2718C26.4583 35.7306 26.3055 36.1262 26 36.4584C25.6666 36.7917 25.2711 36.9584 24.8133 36.9584C24.3555 36.9584 23.9594 36.7917 23.625 36.4584ZM20.5 10.0001C20.9722 10.0001 21.3683 9.84008 21.6883 9.52008C22.0083 9.20008 22.1678 8.80453 22.1666 8.33342C22.1655 7.8623 22.0055 7.46675 21.6866 7.14675C21.3678 6.82675 20.9722 6.66675 20.5 6.66675C20.0278 6.66675 19.6322 6.82675 19.3133 7.14675C18.9944 7.46675 18.8344 7.8623 18.8333 8.33342C18.8322 8.80453 18.9922 9.20064 19.3133 9.52175C19.6344 9.84286 20.03 10.0023 20.5 10.0001Z" fill="#096AD3"/>
</svg>
