<svg width="128" height="51" viewBox="0 0 128 51" fill="none" xmlns="http://www.w3.org/2000/svg">
<path d="M41.7747 16.8601C41.3431 15.2447 40.0623 13.9709 38.4347 13.5332C35.4907 12.75 23.6815 12.75 23.6815 12.75C23.6815 12.75 11.8781 12.75 8.92827 13.5351C7.30457 13.965 6.02571 15.2408 5.58825 16.8601C4.80005 19.7926 4.80005 25.9146 4.80005 25.9146C4.80005 25.9146 4.80005 32.0366 5.58825 34.9671C6.01979 36.5825 7.30063 37.8563 8.92827 38.294C11.8781 39.0792 23.6815 39.0792 23.6815 39.0792C23.6815 39.0792 35.4907 39.0792 38.4347 38.294C40.0564 37.8642 41.3353 36.5883 41.7747 34.9671C42.5629 32.0346 42.5629 25.9146 42.5629 25.9146C42.5629 25.9146 42.5629 19.7926 41.7747 16.8621V16.8601Z" fill="black"/>
<path d="M19.908 20.2716V31.5578L29.7192 25.9147L19.908 20.2716Z" fill="white"/>
<path d="M65.7263 21.1273C64.9874 20.6248 64.008 20.3735 62.7824 20.3735C61.5567 20.3735 60.536 20.6248 59.7734 21.1155C59.0108 21.6062 58.4472 22.3893 58.0847 23.4669C57.7241 24.5445 57.5428 25.9695 57.5428 27.7459V30.1385C57.5428 31.8972 57.7044 33.3045 58.0177 34.3645C58.331 35.4244 58.865 36.2016 59.6098 36.7041C60.3547 37.2066 61.3873 37.4578 62.6976 37.45C63.9765 37.45 64.9933 37.1988 65.7381 36.7081C66.4889 36.2174 67.0308 35.4342 67.3599 34.3684C67.6909 33.3026 67.8584 31.8913 67.8584 30.1307V27.738C67.8584 25.9675 67.6889 24.5425 67.348 23.4787C67.0052 22.4149 66.4653 21.6297 65.7263 21.1273ZM64.1105 31.487C64.1105 32.702 64.0021 33.5793 63.7972 34.1191C63.5883 34.6569 63.2277 34.9258 62.6976 34.9258C62.1676 34.9258 61.8148 34.6569 61.6158 34.1191C61.4188 33.5872 61.3222 32.7078 61.3222 31.487V26.3464C61.3222 25.1608 61.4306 24.2933 61.6355 23.7496C61.8464 23.2039 62.2011 22.9291 62.7055 22.9291C63.21 22.9291 63.5942 23.2039 63.7992 23.7496C64.01 24.3011 64.1125 25.1628 64.1125 26.3464V31.487H64.1105Z" fill="black"/>
<path d="M76.164 33.8013C76.0202 34.1055 75.7975 34.3587 75.5039 34.555C75.2103 34.7513 74.897 34.8475 74.5718 34.8475C74.1935 34.8475 73.9235 34.6865 73.762 34.3745C73.6004 34.0624 73.5216 33.5363 73.5216 32.8003V20.6956H69.7973V33.0103C69.7973 34.5374 70.0554 35.6562 70.5796 36.3726C71.1018 37.091 71.9136 37.4502 73.0132 37.4502C74.5935 37.4502 75.7817 36.6906 76.5759 35.1635H76.6547L76.9798 37.1793H79.8922V20.6956H76.166V33.7993L76.164 33.8013Z" fill="black"/>
<path d="M54.7979 14.6085L53.2589 21.549C52.8274 23.5786 52.5496 25.0212 52.4234 25.8809H52.3151C52.1338 24.6797 51.8579 23.2312 51.4796 21.5255L49.9958 14.6144H46.2952L50.5377 29.8674V37.1848H54.2068V29.8674L58.4966 14.6085H54.7959H54.7979Z" fill="black"/>
<path d="M95.2777 33.8013C95.1338 34.1055 94.9111 34.3587 94.6175 34.555C94.3239 34.7513 94.0106 34.8475 93.6855 34.8475C93.3072 34.8475 93.0372 34.6865 92.8756 34.3745C92.714 34.0624 92.6352 33.5363 92.6352 32.8003V20.6956H88.9109V33.0103C88.9109 34.5374 89.1691 35.6562 89.6932 36.3726C90.2154 37.091 91.0273 37.4502 92.1268 37.4502C93.7072 37.4502 94.8954 36.6906 95.6895 35.1635H95.7683L96.0935 37.1793H99.0059V20.6956H95.2796V33.7993L95.2777 33.8013Z" fill="black"/>
<path d="M116.959 30.1757H123.2V27.3512C123.2 25.6141 123.056 24.25 122.78 23.2646C122.498 22.2773 122.018 21.5531 121.332 21.0859C120.646 20.6188 119.667 20.3852 118.388 20.3852C116.532 20.3852 115.221 20.9544 114.459 22.0909C113.696 23.2332 113.312 25.0351 113.312 27.5122V30.3916C113.312 32.7961 113.678 34.5685 114.417 35.7167C115.154 36.8669 116.441 37.4401 118.28 37.4401C119.813 37.4401 120.995 37.0632 121.83 36.3095C122.666 35.5558 123.086 34.4193 123.086 32.8922C123.086 32.641 123.078 32.4427 123.06 32.2995L119.846 32.113C119.828 33.118 119.714 33.8363 119.509 34.2662C119.306 34.6961 118.922 34.912 118.362 34.912C117.948 34.912 117.641 34.7863 117.442 34.5469C117.245 34.3074 117.111 33.9188 117.052 33.3908C116.987 32.8589 116.955 32.0698 116.955 31.0099V30.1737L116.959 30.1757ZM116.959 27.9734V26.7898C116.959 25.7182 116.991 24.9095 117.056 24.3834C117.121 23.8574 117.247 23.4747 117.434 23.2411C117.621 23.0075 117.915 22.8878 118.311 22.8937C118.709 22.8937 119.003 23.0075 119.188 23.2293C119.375 23.4511 119.505 23.8397 119.578 24.3854C119.649 24.9311 119.686 25.7319 119.686 26.7918V27.9754H116.959V27.9734Z" fill="black"/>
<path d="M110.244 21.0743C109.74 20.6071 109.048 20.3736 108.165 20.3736C107.479 20.3736 106.843 20.564 106.248 20.9526C105.653 21.3354 105.197 21.8437 104.872 22.4738H104.841V13.7864H101.249V37.187H104.325L104.703 35.6266H104.782C105.069 36.184 105.503 36.6198 106.08 36.9436C106.656 37.2675 107.294 37.4284 107.998 37.4284C109.259 37.4284 110.185 36.8494 110.778 35.6933C111.373 34.5372 111.667 32.7314 111.667 30.272V27.6635C111.671 25.8204 111.558 24.3777 111.336 23.3374C111.107 22.2971 110.746 21.5434 110.242 21.0763L110.244 21.0743ZM107.769 32.8865C107.672 33.5696 107.505 34.0524 107.27 34.3409C107.036 34.6295 106.723 34.7708 106.327 34.7708C106.019 34.7708 105.737 34.6982 105.473 34.5549C105.215 34.4116 104.998 34.1957 104.837 33.9091V24.5445C104.963 24.0951 105.18 23.7319 105.485 23.4434C105.793 23.1568 106.122 23.0136 106.482 23.0136C106.861 23.0136 107.154 23.1627 107.359 23.4552C107.562 23.7476 107.706 24.2501 107.791 24.945C107.87 25.6457 107.911 26.6389 107.911 27.9304V30.062H107.917C107.917 31.2672 107.87 32.2054 107.767 32.8885L107.769 32.8865Z" fill="black"/>
<path d="M90.0129 14.6168H78.9702V17.6023H82.6708V37.1833H86.3182V17.6023H90.0129V14.6168Z" fill="black"/>
</svg>
