<svg width="128" height="51" viewBox="0 0 128 51" fill="none" xmlns="http://www.w3.org/2000/svg">
<path fill-rule="evenodd" clip-rule="evenodd" d="M108.839 21.0176C109.134 21.5388 109.231 22.1323 109.263 22.7991L109.304 23.688V29.9035L109.347 30.7934C109.433 32.2467 110.481 33.3209 111.912 33.4125L112.778 33.4562V23.6877L112.82 22.7987C112.856 22.1393 112.952 21.5348 113.252 21.01C114.214 19.3143 116.338 18.7381 117.996 19.7222C118.521 20.0342 118.958 20.4821 119.261 21.0209C119.556 21.5421 119.648 22.1466 119.684 22.7987L119.727 23.6847V29.9029L119.769 30.7928C119.859 32.2533 120.898 33.3279 122.334 33.4118L123.2 33.4556V22.7991C123.2 18.875 120.091 15.6933 116.255 15.692C114.26 15.69 112.361 16.567 111.043 18.0992C109.725 16.5677 107.827 15.69 105.832 15.691C104.39 15.691 103.051 16.1386 101.942 16.9118C101.266 16.1396 99.752 15.691 98.8832 15.691V33.4559L99.7523 33.4121C101.206 33.3143 102.256 32.2686 102.313 30.7931L102.359 29.9032V23.6877L102.402 22.7987C102.439 22.128 102.53 21.5388 102.826 21.0136C103.449 19.9181 104.594 19.244 105.832 19.2434C107.072 19.2434 108.218 19.9198 108.838 21.0173L108.839 21.0176ZM49.3842 33.4128L50.2533 33.4556H63.2787L63.2359 32.5696C63.1182 31.1091 62.1072 30.0421 60.6745 29.9469L59.8054 29.9032H51.9911L62.4096 19.2427L62.3669 18.3574C62.2994 16.882 61.2453 15.816 59.8054 15.7348L58.9364 15.6946L45.9109 15.691L45.9537 16.5799C46.0678 18.0265 47.0935 19.1161 48.5142 19.1999L49.3842 19.2437H57.1986L46.78 29.9042L46.8228 30.7931C46.9084 32.2573 47.9418 33.318 49.3842 33.4121V33.4131V33.4128ZM95.4738 18.2911C98.8654 21.7593 98.8657 27.3833 95.4751 30.8521C95.4748 30.8525 95.4741 30.8531 95.4738 30.8534C92.0809 34.3213 86.5826 34.3213 83.1894 30.8534C79.7985 27.3849 79.7985 21.7596 83.1894 18.2911C84.817 16.626 87.0241 15.6903 89.3263 15.69C91.632 15.6883 93.8436 16.6247 95.4738 18.2921V18.2911ZM93.0164 20.8067C95.0505 22.8886 95.0505 26.2626 93.0164 28.3448C90.9811 30.4254 87.6825 30.4254 85.6468 28.3448C83.6128 26.2629 83.6128 22.8889 85.6468 20.8067C87.6822 18.7261 90.9807 18.7261 93.0164 20.8067ZM71.1005 15.69C73.4026 15.6907 75.6098 16.6267 77.237 18.2921C80.6289 21.76 80.6289 27.3859 77.237 30.8534C73.8441 34.3213 68.3458 34.3213 64.9526 30.8534C61.5617 27.3849 61.5617 21.7596 64.9526 18.2911C66.5802 16.626 68.7877 15.6903 71.0895 15.69H71.1005ZM74.7796 20.8047C76.814 22.8869 76.814 26.2616 74.7796 28.3435C72.7443 30.4241 69.4457 30.4241 67.41 28.3435C65.376 26.2616 65.376 22.8876 67.41 20.8054C69.4454 18.7248 72.7439 18.7248 74.7796 20.8054V20.8044V20.8047Z" fill="black"/>
<path d="M22.2147 42.1931C31.8332 42.1931 39.6294 34.4261 39.6294 24.8465C39.6294 15.267 31.8318 7.49988 22.2147 7.49988C12.5976 7.49988 4.80005 15.2655 4.80005 24.8465C4.80005 34.4275 12.5962 42.1931 22.2147 42.1931Z" fill="black"/>
<path fill-rule="evenodd" clip-rule="evenodd" d="M15.0191 29.8034H26.5369V21.3915C26.5369 20.1246 25.5054 19.0972 24.2336 19.0972H12.7158V27.5091C12.7158 28.776 13.7472 29.8034 15.0191 29.8034ZM28.0719 26.7453L32.6784 29.8034V19.0958L28.0719 22.1553V26.7439V26.7453Z" fill="white"/>
</svg>
